<svg xmlns="http://www.w3.org/2000/svg" width="20.399" height="13.283" viewBox="0 0 20.399 13.283">
  <path id="np_mail_867234_000000" d="M8.446,22A1.441,1.441,0,0,0,7,23.423V33.86a1.441,1.441,0,0,0,1.445,1.423H25.954A1.441,1.441,0,0,0,27.4,33.86V23.423A1.441,1.441,0,0,0,25.954,22Zm.245.949H25.709l-8.094,7.235a.7.7,0,0,1-.83,0Zm-.741.608,5.923,5.292L7.949,33.756Zm18.5,0v10.2l-5.923-4.907Zm-11.86,5.937,1.564,1.394a1.573,1.573,0,0,0,2.09,0l1.564-1.394,5.848,4.84H8.742Z" transform="translate(-7 -22)" fill="#2168b4"/>
</svg>
