<svg xmlns="http://www.w3.org/2000/svg" width="15.329" height="15.296" viewBox="0 0 15.329 15.296">
  <path id="np_phone_1841523_000000" d="M18.029,20.385c-.754-1.319-.44-1.319.691-2.575Zm.377-1a15.235,15.235,0,0,0,3.831,4.02c.942.565.252.377,1.7-.628a1,1,0,0,1,1,0l3.328,2.261s.879.5.063,1.382l-2.638,2.2a3.6,3.6,0,0,1-2.638-.189c-3.078-1.131-8.228-6.218-9.359-9.3-.879-2.575,0-2.952,1.633-4.9.44-.5,1.194-1.257,1.821-.314,2.575,3.831,3.141,3.643,1.257,5.464Zm.314-1.7-2.261-3.328c-2.2,2.512-2.7,2.386-1.947,4.459,1,2.826,5.966,7.788,8.793,8.856,2.136.754,2.01.189,4.459-2.01-4.083-2.764-2.952-2.575-4.459-1.319-1.131,1-4.774-3.2-5.276-3.957l.691-2.7Z" transform="translate(-13.347 -13.466)" fill="#f7f9fc"/>
</svg>
