<?xml version="1.0" encoding="utf-8"?>
<!DOCTYPE svg PUBLIC "-//W3C//DTD SVG 1.1//EN" "http://www.w3.org/Graphics/SVG/1.1/DTD/svg11.dtd">
<svg version="1.1" id="Layer_1" xmlns="http://www.w3.org/2000/svg" xmlns:xlink="http://www.w3.org/1999/xlink" x="0px" y="0px"
	 viewBox="229.9623 167.6395 1390.0951 1212.0609" enable-background="new 229.9623 167.6395 1390.0951 1212.0609"
	 xml:space="preserve">
<g id="_x23_000000ff">
	<path d="M1329.9301,213.9004c14.6699-1.16,29.4299-1.15,44.11,0.05c9.8099,0.25,19.2799,2.98,28.99,4.08
		c7.8199,1.69,15.35,4.46,23.0499,6.62c8.0601,2.05,15.5801,5.68,23.25,8.85c11.29,4.28,21.61,10.66,31.86,16.97
		c9.1901,6.02,18.51,11.97,26.63,19.44c14.4401,11.87,27.27,25.66,38.3101,40.74c5.15,6.04,9.3,12.81,13.25,19.67
		c9.27,15.27,16.97,31.51,22.37,48.54c2.63,5.65,3.22,11.92,5.28,17.76c1.84,5.23,2.1,10.82,3.28,16.21
		c4.35,20.28,4.0599,41.2,3.2,61.82c-0.8,8.04-1.49,16.11-3.38,23.98c-1.17,6.16-1.87,12.42-4.0699,18.33
		c-2.2301,11.4-6.9901,22.03-11,32.86c-8.63,19.07-18.77,37.65-32.04,53.91c-20.72,27.52-48.17,49.54-78.4401,65.77
		c-0.0399,0.55-0.12,1.66-0.1699,2.21c-9.9501,8.52-19.5,17.82-31.0701,24.17c-3.9099,0.8-8.27-0.17-11.84,2.04
		c1.52,0.58,3.12,1.16,4.7,1.72c-4.34,1.38-8.5199,3.33-12.0199,6.28c-3.3201,3.13-8.2201,2.66-12.14,4.57
		c-4.67,1.62-8.0801,5.54-12.79,7.05c-5.84,2.2-10.76,6.18-16.41,8.73c-6.6899,2.46-13.85,3.22-20.77,4.8
		c-11.72,2.13-22.5599,7.29-33.2,12.43c-2.97,1.27-4.85,3.98-6.77,6.44c-9.34,12.08-17.85,24.97-23.76,39.1
		c-2.12,5.56-4.51,11.54-3.4199,17.58c0.4399,2.99,4.01,3.06,6.23,4.07c-0.91,5.53-0.51,11.36-2.4401,16.69
		c-8.01,16.99-16.0299,33.99-24.0699,50.97c-1.2001,2.7-3,5.3-3.0601,8.35c-0.39,9.99-0.0299,20.03-1.1799,29.99
		c-1.36,12.6-1.6901,25.29-2.23,37.95c-1.3201,9.57-4.51,18.75-7.0901,28.03c-1.0299,3.15-1.5399,6.66-3.7999,9.2401
		c-5.3201,6.22-10.0801,12.95-13.87,20.22c-3.49,6.03-4.63,13.04-7.9,19.15c-7.02,12.59-19.25,20.8501-30.5601,29.2201
		c-7.0699,5.2799-14.62,9.99-22.85,13.24c-11.99,5.71-23.78,11.89-35.1699,18.73c-5.9301,3.52-12.63,5.5499-19.4501,6.41
		c-11.1,1.34-22.3099,1.1799-33.47,0.9399c-24.42-1.15-48.75-3.54-73.03-6.29c-5.25-0.73-9.93,2.3-15.01,2.79
		c-3.54,0.21-6.0099-2.66-7.92-5.21c-4.95,1.09-9.89,2.1899-14.82,3.2899c3.22,25.89,7.1,51.6801,11.37,77.41
		c2.98,19.16,6.51,38.4,6.01,57.87c-0.05,9.76,0.6,20.09-3.52,29.2001c-4.48,8.6599-15.08,11.4099-24.15,10.99
		c-5.58-0.3101-9.58,4.58-14.97,5.0299c-6.6299,0.7101-13.3,0.2201-19.9399-0.0699c-0.86,6.09,3.1,11.05,5.5699,16.23
		c7.71,14.33,16.21,28.51,27.75,40.13c7.71,8.16,13.28,18.08,17.6801,28.35c2.6299,6.52,5.42,13.12,6.3199,20.16H604.26
		c-0.53-5.65-1.1-11.35-0.34-17c0.69-4.85,0.37-9.84,1.69-14.58c3.85-10.1801,8.58-20.05,12.12-30.3201
		c-2.81-7.76-8.19-14.64-9.11-23.01c-0.36-6.13-6.06-9.6599-9.26-14.35c-7.77-8.59-13.44-19.11-22.76-26.21
		c-5.54-4.5601-12.56-6.5901-18.84-9.86c-3.06,2.62-6,5.36-8.95,8.09c-1.34,1.0599-2.61,2.77-4.53,2.4
		c-18.85-1.5801-37.74-2.7001-56.58-4.4401c-9.11,8.1801-18.04,16.61-27.8,24.05c-5.87,4.63-12.84,7.54-19.77,10.2
		c-16.64,6.0901-33.84,10.49-50.95,15.05c-9.27,2.48-18.86,1.0499-28.21-0.04c-5.85-0.89-12.44,1.28-17.66-2.33
		c-6-3.7101-8.83-10.42-11.72-16.52c-5.65-3.5-11.95-5.87-17.84-8.97c-11.4-5.5901-22.84-11.13-34.04-17.13
		c-3.2-1.62-5.46-4.5801-6.91-7.79c-3.69-7.98-5.47-16.7-9.12-24.7c-2.18-4.73-5.97-8.73-6.88-14
		c-2.43-11.9301,0.93-24.1801,5.81-35.05c4.03-8.9299,5.46-18.79,5.53-28.52c0.06-4.58-0.23-9.5599,2.55-13.49
		c3.7-5.59,10.55-7.65,16.87-8.45c4.16-11.53,11-21.8201,17.3-32.25c8.84-14.67,19.57-28.11,31.13-40.7001
		c9.33-10.4299,19.46-20.3199,26.83-32.3c11.44-17.92,25.2-34.19,37.43-51.53c-0.93-1.63-2.38-3.22-2.06-5.24
		c0.31-5.52,2.2-11.58,7.07-14.74c4.28-3.04,9.7-3.3,14.75-3.43c5.77-9.04,11.14-18.45,18.31-26.46
		c8.89-8.09,13.04-19.72,19.95-29.29c3.24-4.44,8.62-6.23,13.51-8.19c8.4-3.9301,16.64-8.25,25.35-11.47
		c5.26-2.05,11.26-1.17,16.33-3.81c4.7-2.17,6.18-7.81,10.54-10.41c6.84-4.12,14.93-5.41,21.99-9.07c2.17-1.07,3.7-2.99,5.2-4.82
		c-9.94-6.18-13.45-18.01-21.44-26.02c-9.72-12-16.08-26.38-20.9-40.96c-4.23-12.64-5.5-26.42-2.14-39.42
		c-3.63,5.93-5.55,12.71-6.65,19.52l-0.21-0.02l-0.14,0.58c-0.29-14.98,7.56-28.41,16.08-40.13c-5.87,4.24-11.36,8.95-16.91,13.59
		c2.35-4.31,6.06-7.62,9.67-10.85c6.72-5.65,13.57-11.15,20.71-16.26c4.94-3.47,9.8-7.21,15.5-9.38c2.02-1.04,4.76-1.53,5.73-3.85
		c-1-4.09-3.77-7.8-3.39-12.17c0.08-2.83,2.31-5.15,4.8-6.19c2.85-0.9,5.4,1.1,7.84,2.27c0.96-17-4.46-33.39-7.47-49.9301
		c-4.72-23.8199-6.84-48.96,0.12-72.5699c4.73-15.35,11.04-30.24,18.9-44.25c8.43-14.85,18.78-29.12,32.83-39.13
		c6.71-4.91,14.62-7.65,22.3-10.6c5.72-2.03,11.44-4.46,17.58-4.81c10.68-0.63,21.19-3.83,30.48-9.12
		c7.97-4.46,17.52-6.87,26.54-4.52c6.88,1.66,14.44,5.49,16.18,13c11.25,0.97,22.77-0.95,33.76,2.35
		c18.19,3.09,33.62,13.87,48.43,24.21c11.86,8.3,22.32,18.8,29.62,31.36c5.91,9.91,11.87,20.98,10.33,32.93
		c-1.36,9.64-4.52,18.91-7.71,28.08c-0.19-0.8-0.59-2.4-0.78-3.2c-0.59,0.2-1.7599,0.61-2.35,0.82
		c-1.46,10.15-0.94,21.72,5.78,30.04c8.21,10.41,18.75,18.65,27.49,28.57c3.77,4.04,3.73,10.53-0.01,14.58
		c-3.5,5.45-10.27,6.8199-14.78,11.0699c-2.28,1.97-2.9,5.21-2.37,8.08c1.36,3.17,5,5.29,4.97,9.04c0.16,3.74-5.48,4.23-5.18,7.92
		c0.45,4.08,4.69,6.23,5.85,10c-1.04,3.71-5.12,5.19-6.93,8.37c-0.75,2.63,0.81,5.11,2.07,7.3c3.4,5.49,7.46,10.88,8.67,17.38
		c1.67,8.25-2.83,16.78-9.53,21.45c-5.77,3.98-12.9901,4.33-19.63,5.74c-11.66,2.48-23.73,1.43-35.4301,3.58
		c-9.9,2.16-15.89,11.4-19.68,20.08c-3.22,7.41-6.46,14.8-9.79,22.16c-1.47,2.55-0.36,5.44,0.11,8.1c1.88,0.36,3.77,0.75,5.66,1.15
		c1.02,3.6,1.38,7.48,3.17,10.81c2.66,2.65,6.89,1.79,10.28,2.76c14.64,3.33,28.73,8.64,43.09,12.98
		c8.78,3.35,18.25,3.81,27.42,5.42c5.39,0.6,10.77,2.37,16.23,1.5c8.02-1.18,16.21-0.79,24.18,0.58c8.83,1.52,17.89,1.76,26.78,0.52
		c10.06,6.35,20.01,12.89,30.07,19.25c6.07,3.23,12.5,5.78,18.9,8.3c7.01,2.36,13.07,6.7,19.44,10.34
		c4.77,2.41,7.2,7.41,11.09,10.86c2.83,3.07,6.87,4.42,10.29,6.65c7.03,4.94,12.3,11.83,17.7,18.41c4.74,5.7,12.21,8.76,19.6,8.1
		c6.8-0.55,12.85,2.98,19.1799,4.83c4.5701,1.5,9.3701,2.13,14.01,3.46c7.4,2.18,13.8601,7.04,18.26,13.36
		c9.28-4.75,18.51-9.6,28.04-13.84c6.3199-2.79,13.7-3.34,20.17-0.67c5.62-3.99,6.86-11.16,11.0699-16.29
		c3.74-5.57,10.17-8.2401,14.85-12.85c7.3201-6.33,12.36-14.67,17.35-22.82c3.29-5.61,7.79-10.34,11.6001-15.55
		c8.01-17.65,15.7999-35.42,23.72-53.12c1.55-3.31,4.95-5.12,7.58-7.46c-0.9399-1.66-1.88-3.31-2.8199-4.95
		c1.45-2.09,2.9299-4.16,4.41-6.22c1.6699,0.74,3.35,1.49,5.0399,2.25c4.74-12.21,9.41-24.45,13.7101-36.82
		c2.7899-6.41,5.0699-13.58,10.7999-18.04c7-6.03,9.36-15.71,16.63-21.47c7.73-6.45,15.59-12.98,25.05-16.72
		c-43.91-9.12-85.1-30.74-117.7001-61.53c-6.59-5.17-11.6599-11.9-17.1899-18.11c-5.46-5.95-10.1-12.56-15.04-18.93
		c-13.3199-20.17-24.83-41.75-31.98-64.91c-2.59-6.24-3.14-13.06-5.63-19.34c-1.36-7.02-2.15-14.17-3.78-21.15
		c-1.26-10.57-1.89-21.24-1.76-31.89c-0.13-12.18,0.3-24.41,2.04-36.47c2.1-8.19,2.17-16.81,5.2-24.77
		c4.87-21.02,13.39-41.07,24.01-59.82c10.3201-18.62,23.74-35.35,38.24-50.88c26.64-26,58.7001-46.69,93.9801-58.84
		c9.58-2.79,19.0399-6.13,28.86-8.01C1311.27,216.6304,1320.45,214.1104,1329.9301,213.9004 M1320.01,221.6804
		c-7.38,0.93-14.87,1.57-21.97,3.9c-4.4701,1.55-9.3301,1.58-13.6801,3.49c-4.13,1.79-8.78,2.06-12.77,4.23
		c-2.99,1.63-6.4199,2.03-9.5,3.42c-5.3099,2.37-10.51,4.94-15.83,7.25c-7.99,3.88-15.49,8.65-23.14,13.08
		c3.64,0.06,7.14,1.22,10.73,1.77c3.23,0.62,6.75,0.68,9.48,2.78c0.42-0.23,1.27-0.7,1.6901-0.94c4.15,1.1,9.6699-1.6,12.78,2.27
		c0.6,5.47,2.9299,10.67,7.13,14.33c3.97-1.67,6.46-6.24,11.1599-6.16c2.76,0.17,5.9601,0.44,8.0801,2.45
		c1.8999,3.07-1.27,5.92-3.5701,7.57c-5.47,1.68-9.4199,6.09-12.87,10.42c1.21,0.5,2.6901,0.65,3.76,1.54
		c1.1,1.99-0.9399,3.6-1.78,5.23c-1.5399,1.87-0.72,4.36-0.24,6.46c-1.1599,0.9-2.22,1.93-3.51,2.62c-2.27,0.28-4.5499-1.1-6.73,0
		c0.51,0.59,1.53,1.75,2.04,2.34c-0.01,1.71-0.01,3.42-0.01,5.14c-1.51,0.56-3.01,1.13-4.48,1.72c-1.5801,1.97-4.12,3.2-6.61,2.39
		c-4.64,2.54-10.0901,2.75-15.2201,3.35c-3.4399-0.18-4.84,3.53-6.8199,5.66c-3.05,0.24-6.15-1.54-9.04-0.12
		c-1.52,0.52-2.99,1.15-4.45,1.76c0.7999,3.09-1.05,6.01-4.33,6.03c1.0299,6.03-8.0901,11.31-11.6101,5.45
		c-1.4299,0.97-3.1799,1.64-4.3999,0.02c-2.52-2.55-5.91-3.77-8.8201-5.75c-1.52-4.76-5.95-7.42-8.14-11.79
		c0.14-1.32,0.3101-2.63,0.49-3.94c-1.8999-1.25-2.5699-3.35-3.34-5.35c-2.12-3.23-1.76-7.27-2.65-10.9
		c-2.0499,0.9-3.22,2.88-4.64,4.48c-3.11,3.65-5.8899,7.59-8.1899,11.79c2,0.47,4.0599,0.71,5.99,1.5c1.41,0.41,2.37,2.28,1.1,3.44
		c-2.1699,3.23-5.8199,5.58-9.74,5.8c0.6801,2.56,1.91,6-1.14,7.56c3.47,2.98,6.5701,6.39,9.5701,9.84
		c1.0299,2.91,4.3199,2.96,6.88,3.51c1.6499,1.61,3.0599,3.45,4.6699,5.11c1.9501,1.07,5.5701,1.33,5.28,4.35
		c0.54,2.63-3.26,3.72-2.87,6.06c1.8199,0.57,4.0699,0.01,5.55,1.47c1.8099,1.75,3,4.05,3.84,6.4c0.65,1.88-0.9301,4.5-3.1,3.75
		c-2.76-0.48-5.8101,0.83-8.2001-1.01c-2.73,0.63-5.9399,1.26-8.4199-0.37c0.5,1.92,1.2999,3.76,1.5399,5.77
		c-0.77,0.8-1.5599,1.56-2.37,2.28c-3.85,0.65-7.6,1.74-11.4399,2.38c-1.4,0.92-2.75,1.87-4.0801,2.87
		c-2.23-0.59-4.0499-1.89-5.1899-3.88c-2.0601,0.41-4.1,0.79-6.17,1c-1.0499,2.07,1.5801,4.08,0.2201,6.05
		c-1.16,0.96-2.4901,1.66-3.76,2.42c-1.77-0.08-3.52-0.11-5.26-0.11c-0.14,0.51-0.4301,1.54-0.5701,2.05
		c-3.0299,1.48-2.6599,5.67-5.9399,7.04c0.33,1.44,1.16,3.02,0.13,4.4c-1.9501,2.06-4.87,2.91-6.7001,5.12
		c0.0601,0.56,0.1801,1.69,0.24,2.26c-1.21,6.09-1.7699,12.29-2.87,18.4c2.04,0.62,5.01,0.99,5.4701,3.59
		c-0.02,3.07-3.79,3.5-6.1001,3.2c0.88,2.68,4.0701,3.17,6.4801,3.69c2.5,0.41,4.1499,2.57,6.09,4.01c-0.89,1.31-1.39,3.18-3.13,3.6
		c-3.39,0.61-6.5-1.23-9.39-2.71c-0.03,2.08-0.09,4.15-0.14,6.24c1.99-2.67,6.26-2.03,7.1801,1.18c0.97,2.77-1.9,4.32-3.6801,5.74
		c-1.11-0.82-2.24-1.63-3.3099-2.43c0.1699,5.29,0.22,10.63,1,15.88c0.99,1.34,2.4199,2.28,3.6699,3.4
		c3.5-5.62,9.73-10.94,16.7201-10.1c0.2599,0.59,0.7699,1.76,1.0299,2.34c1.49-0.36,3.05-1.35,4.63-0.75
		c0.99,0.78,1.62,1.92,2.4301,2.91c2.34-0.83,4.76-0.61,6.97,0.54c3.0699-2,7.0601-1.95,10,0.29c1.46-2.17,3.76-3.05,5.9401-1.24
		c-0.3301,2.36-0.5801,4.78-1.8,6.88c4.83-0.87,7.42,3.6,9.75,6.94c2.71-0.24,5.6-0.95,8.24,0.15c4.05,1.67,7.14,5.04,9.1801,8.85
		c2.9399,0.93,4.33,3.78,4.1699,6.75c1.91,1.9,4.53,2.19,7.11,1.92c3.8101,1.94,7.37,4.35,11.29,6.11c1.52-0.74,3.16-1.2,4.89-1.21
		c1.8099,1.19,3.73,2.19,5.66,3.22c2.3899,4,8.97,2.48,10.83,7.1899c3.1801,4.51,0.04,9.8-1.6801,14.22
		c-2.37,2.6-4.46,5.48-7.37,7.5c-2.83,2.04-0.6799,5.75-0.84,8.54c-0.67,2.04-1.71,4-1.73,6.2c0.0699,3.14-2.6801,5.18-3.89,7.85
		c-1.17,1.79-1.62,4.37-3.75,5.3c-2.63,0.8101-5.4399,0.72-8.03,1.61c-3.48,1.17-6.64,3.09-9.76,4.97
		c0.8301,2.64,1.8201,5.8-0.24,8.17c-2.4099,2.57-3.8199,7.15-8.11,6.6c-0.22,1.29-0.4,2.6-0.5699,3.91
		c-3.7201,3.61-6.9701,8.8-12.73,8.97c-0.4501,2.55-1.67,4.85-3.52,6.67c3.21,3.03,5.58,6.85,9.21,9.46
		c3.72,4.28,7.83,8.22,12.37,11.64c13.61,12.57,29.35,22.63,45.59,31.46c3.01,1.86,6.62,2.44,9.55,4.47
		c5.0599,2.95,10.64,4.92,16.21,6.68c6.78,3.03,13.91,5.04,21.02,7.11c6.84,1.31,13.38,3.97,20.37,4.65
		c4.46,0.2599,8.9301,1.91,13.42,0.84c8.9199-1.76,18.0399-2.18,27.0599-3.11c7.2201-3.11,14-7.16,21-10.73
		c3.4501,2,6.86,4.33,10.8,5.29c8.51-3.99,15.17-11.59,24.37-14.22c3.62-1.3,6.2,2.23,5.6801,5.59c1.0299,0.77,2.08,1.53,3.1599,2.3
		c6.2001-4.8,12.74-9.26,19.9-12.52c2.42-1.13,5.61-1.55,7.83,0.27c2.75,2.08,3.7001,5.57,4.8101,8.68
		c2.4299-1.91,5.25-3.49,8.41-3.64c3.5199-0.22,6.38-2.47,9.4299-3.98c16.5801-9.54,32.51-20.44,46.4601-33.57
		c4.0699-3.63,7.3799-8.06,11.6699-11.5c13.12-14.12,24.75-29.67,34.15-46.5c1.64-4.53,4.89-8.22,6.54-12.73
		c1.6699-3.87,3.45-7.7,5.4199-11.44c3-8.87,6.8101-17.43,9.26-26.5c1.97-9.68,5.28-19.08,5.9501-29
		c2.5699-12.1,2.8899-24.56,3.01-36.88c-2.25-1.94-4.1801-4.28-5.3201-7.02c-2.95,3.43-7.86,1.01-11.28,2.9
		c-4.51,5.51-9.5299,10.9-16.1,13.94c0.6,4.79-0.46,9.45-1.53,14.09c0.9601,0.46,1.9401,0.94,2.9301,1.42
		c0.67,2.78,2.22,5.39,2.3,8.3c-0.92,2.6-3.2201,4.45-5.8701,5.04c-2.1299-1.65-3.73-3.8-3.9399-6.56c-1.46,1.2-2.89,3.03-5.02,2.43
		c-1.11-0.87-1.96-2-2.85-3.04c0.0699-0.69,0.21-2.08,0.28-2.77c-0.5-1.26-0.9301-2.55-1.5601-3.72
		c-4.53-6.63-7.7999-14.02-10.5-21.54c-0.27-2.19,0.03-4.4,0.0801-6.59c-2.05,0.61-4.3601,1.07-6.13-0.45
		c-2.5801-1.51-1.8601-4.86-2.25-7.33c-3.3301-0.24-5.62-2.55-7.5901-4.97c-5.3999,3.82-12.51,2.15-18.6499,1.72
		c2.0699,1.15,5.58,2.94,4.11,5.85c-3.51,5.84-7.25,11.81-12.9601,15.77c-4.58,3.08-9.99,4.56-15.23,6.03
		c-3.59,1.12-6.83,3.03-10.12,4.76c-2.5699,0.65-5.21,0.92-7.7999,1.37c0.1699,0.76,0.5199,2.3,0.6899,3.07
		c5.17-0.58,9.51-3.79,14.59-4.76c2.4601-1.39,6.9401-0.66,6.9701,2.79c0.73,2.55-1.1101,4.72-1.7301,7.09
		c-1.0699,3.84-3.73,6.91-5.75,10.26c-2.0299,2.5-2.6899,5.93-5.2799,7.98c-1.8301,1.7-4.3201,2.35-6.3201,3.76
		c-4.84,4.16-8.58,9.37-12.87,14.05c-3.35,2.38-0.85,6.7-0.7,9.98c0.11,3.18,4.34,4.62,3.84,7.93
		c-1.21,5.36,0.8199,11.55-2.92,16.21c-2.97,5.06-10.59,4.89-12.6799,10.76c-0.3301,3.36,2.1699,6.52,1.5599,9.95
		c-1.5499,2.86-5.0399,3.78-7.4299,5.8c0.64,2.16,0.72,4.62-1.05,6.3c-4.15,4.11-7.7,8.79-12.14,12.63
		c-3.7999,3.79-9.4299,5.18-14.6699,4.77c-4.65-0.26-8.9801,3.42-13.53,1.03c-4.53-2.71-3.04-8.83-5.08-13.02
		c-1.8601-3.3-4.5-6.09-6.3201-9.41c-2.58-3.54,0.02-8.21-1.86-11.99c-1.67-3.54-3.86-6.81-6.0601-10.04
		c-3.0199-6.88-3-16.89,4.39-21.06c-2.58-3.45-3.4299-7.64-2.85-11.87c-2.36-3.8-4.73-7.63-7.6899-10.98
		c-1.26-1.36-3.4301-2.1-3.76-4.1c-1.2001-2.84,2-5.1,1.33-7.96c-0.28-2.42,1.73-4.2,2.83-6.13
		c-1.0399-0.49-2.0599-0.96-3.0699-1.44c-2.1801,1.19-4.6899,2.65-7.21,1.67c-3.73-1.05-2.9701-6.75-6.9601-7.37
		c-4.73,0.82-8.5,4.31-13.2699,4.98c-4.28,0.5-8.5801-0.64-12.8501-0.05c-1.5599,1.68-3.0599,4.44-5.8199,3.03
		c-3.99-2.62-7.48-5.93-11.1801-8.92c-2.76-1.98-3.6599-5.44-5.75-7.96c-2.5-2.03-5.45-3.41-8.3099-4.81
		c-0.64-3.37-0.5601-6.9-2.04-10.05c0.25-2.52,2.7001-4.28,3.8101-6.52c2.22-2.84,0.89-6.88-1.03-9.52
		c-0.1-2.2-0.6801-4.67,0.87-6.53c2.0599-3.09,3.35-6.59,5.13-9.83c2.79-4.26,7.66-6.29,11.9299-8.69
		c0.28-3.57,0.4501-7.51,2.8301-10.4c2.76-2.04,5.9-3.53,8.63-5.65c-0.5601-0.43-1.6901-1.3-2.25-1.74
		c-5.27,0.96-9.27-4.48-9.2001-9.28c0.75-0.58,1.52-1.16,2.3-1.73c-1.3-4.5-1.24-10.66,3.92-12.6c5.5699-0.05,11.01,1.31,16.59,1.25
		c0.58-1.71,1.08-3.45,1.38-5.23c-3.47-1.88-8.21-1.9-10.5601-5.4c0.6001-1.05,1.2101-2.09,1.8401-3.14
		c1.2899-0.14,2.6399-0.27,3.98-0.4c-0.63-0.26-1.89-0.77-2.52-1.02c-0.23-0.54-0.7-1.61-0.9401-2.14
		c-1.1699-0.98-2.2999-1.99-3.3999-3c-2.26,2.05-5.25,3.01-8.2201,3.4c-3.6,0.28-6.58-4.15-4.33-7.23c-0.14-1.5-0.9-3.36,0.35-4.56
		c2.42-1.54,5.0601-2.71,7.51-4.21c0.0601-1.92-1.29-4.4,0.5601-5.85c1.6899-1.41,4.36-0.32,6.0699-1.89
		c3.16-2.9,7.1801-0.09,10.14,1.7c1.99,1.12,1.89,3.62,1.3,5.52c2.2699,3.08,4.8999,5.95,8.3999,7.67c0.88,1.17,1.17,3.28,2.92,3.48
		c2.1,0.54,3.29-1.66,4.74-2.74c2.03-1.97,4.83-2.69,7.52-3.26c-0.14-2.12,0.23-4.21,1.01-6.18c-2.87,0.35-4.6901-2.11-6.83-3.53
		c-0.14-3.49-1.9401-6.87-1.8201-10.27c3.5601-5.03,10.13-6.03,15.3101-8.67c3.5699-2.72,7.22-5.42,10.23-8.78
		c1.65-1.7,3.1799-3.71,5.52-4.5c4.72-1.32,9.59-2.2,14.2-3.87c3.51,0.02,6.75-1.7,10.28-1.51c5.73,0,11.4399,0.79,17.11,1.59
		c4.73,1.25,9.0599,3.82,13.9,4.74c6.72,0.32,13.8999,0.98,19.3099,5.46c0.23-1.95,0.11-5.01,2.62-5.52
		c3.0901-0.91,7.79-1.38,9.22,2.33c3.42-0.2,7.42,1.02,10.3201-1.39c2.29-1.54,5.58-1.03,7.72,0.63c0.92-0.61,1.9301-1.12,2.88-1.74
		c-3.4299-1.68-7.1799-2.42-10.72-3.74c-2.28-1.73-0.0701-4.48,0.71-6.44c4.04-1.58,8-3.37,11.91-5.26c1.91-0.9,2.74-3.38,4.95-3.74
		c4.61-1.02,9.3301-1.66,14.0601-2c2.99-0.26,5.99,0.6,9,0.15c2.2-0.39,3.7-2.64,5.98-2.74c1.35,0.57,2.47,1.57,3.8199,2.21
		c-0.47-2.07-2.97-2.81-4.13-4.47c-10.1499-11.22-22.1499-20.64-34.71-29.02c-13.9299-9.88-29.2999-17.53-45.04-24.06
		c-9.7799-3.42-19.4299-7.43-29.6699-9.22c-4.3301-0.81-8.4501-2.42-12.76-3.23c-11.2-1.18-22.23-3.71-33.52-3.92
		C1348.65,218.9804,1334.15,219.0104,1320.01,221.6804 M1524.21,294.8004c-1.11,3.19-4.1899,4.79-6.51,6.98
		c-3.84,0.71-7.75,0.33-11.61,0.5c-5.9-1.09-11.72,1.16-16.64,4.24c1.1901,1.48,2.8401,3.44,1.87,5.46
		c-0.7699,2.34-3.36,2.69-5.35,3.4c2.99-0.85,6-0.28,9,0.16c4.97-5.41,12.79-2.72,18.85-0.98c-0.71-1.96-1.4299-4.89,0.8201-6.16
		c3.66-2.09,6.53-5.36,10.35-7.17c3.05,0.1,5.54,2.38,8.4,3.34c-2.67-3.3-5.77-6.24-8.3101-9.64
		C1524.86,294.9004,1524.4301,294.8304,1524.21,294.8004 M1394.41,327.0504c-1.3201,1.45,1.1699,2.78,2,1.22
		C1397.67,326.8804,1395.1899,325.5404,1394.41,327.0504 M1439.22,326.9704C1439.79,327.4804,1439.79,327.4804,1439.22,326.9704
		 M1382.64,335.6804c1.48,1.74,4.26,3.36,3.38,6.06c-0.34,2.84-3.9401,3.59-4.87,6.11c-0.51,1.18-0.47,2.61-1.3301,3.62
		c-2.22,2.67-5.98,2.42-9.0299,3.32c1.1,2.2,3.49,0.5,5.08-0.21c2.9401-2.02,6.7-0.77,10.03-0.99c0.0399-0.71,0.12-2.12,0.16-2.83
		c0.8199-1.19,1.6-2.41,2.47-3.59c0.96-1.86,4.0599-0.73,4.9-2.49c-1.9701-3-4.5701-5.64-5.41-9.26
		C1386.21,335.4804,1384.41,335.5604,1382.64,335.6804 M1146.52,338.1104c-0.92,1.55-1.6901,3.19-2.3,4.89
		c0.6801,0.06,2.04,0.19,2.72,0.26c2.2101-2.1,4.0801-4.52,6.27-6.66C1150.8199,336.1704,1148.6899,337.4104,1146.52,338.1104
		 M1159.73,373.8204c0.9501,0.98,1.85,2.03,2.5,3.26c1.6-1.48,3.4301-2.45,5.3101-0.53c-1.27-2.69,1.4199-4.65,1.5299-7.22
		C1165.96,370.8504,1162.73,372.0904,1159.73,373.8204 M1474.46,376.9204c-3.09,2.93-7.3099,4.56-11.46,2.97
		c-0.46,1.05-2.3199,2.06-1.4,3.3c1.77,2.69,3.15,6.43,6.77,6.96c2.17,0.69,5.38,1.64,5.51,4.4c-1.78,2.4-4.36,3.95-6.92,5.37
		c-1.6,1.19,1.13,2.31,2.12,2.48c3.14,0.64,6.41,2.25,9.6001,0.88c-0.4301-2.17-0.6101-4.48-1.9801-6.29
		c-1.1499-1.29-1.2899-2.91-0.24-4.3c-1.64-1.07-2.8199-2.6-3.73-4.28c-1.39-0.34-3.41,0.08-3.6799-1.78
		c-1.4501-2.88,0.6799-5.89,2.8999-7.62c2.4401-0.54,4.7001,0.69,6.9501,1.48C1477.95,378.7004,1476.47,377.3104,1474.46,376.9204
		 M1417.98,379.3304c-2.36,3.24-4.23,6.89-7.7,9.14c0.28,0.6,0.83,1.79,1.11,2.39c4.0499,1.23,8.1,0.07,11.28-2.59
		c3.36,0.26,6.88,0.29,10,1.8c3.86,1.98,8.2699,0.98,12.4099,0.83c-4.2899-3.36-8.83-6.57-14.0699-8.24
		c-2.36,1.42-5.1,4.46-8.01,2.93C1421.28,383.5304,1419.9301,381.1804,1417.98,379.3304 M1349.92,390.9704
		c-2.15-0.68-4.3-1.32-6.4301-1.97c-1,2.54-2.0599,5.33-0.29,7.81c-0.88,3.94-7.45,3.5-6.7-0.93c-0.91,0.59-1.8101,1.18-2.6801,1.77
		c0.38,0.95,0.75,1.91,1.0901,2.89c-1.3,1.85-4.17,2.45-4.76,4.71l0.41,0.01c2.9099-1.68,6.1499-2.83,9.48-3.36
		c5.02-0.09,10.1,0.24,15.09-0.67c-1.15-1.44-2.73-2.63-3.3199-4.42c-0.25-2.86,2.0299-6.19,5.22-5.6
		c3.12,1.01,4.4199,4.6,3.15,7.52c-0.7101,0.45-1.41,0.91-2.0801,1.38c1.89,1.11,3.73,2.33,5.49,3.66
		c0.4501,2.01,0.98,4,1.5601,5.99c-0.52,0.94-1.03,1.88-1.52,2.82c4.17,2.69,9.55,2.71,13.4399,5.91c1.77,1.25,4.05,1.34,6.16,1.6
		c3.4-3.4,8.21-7.97,13.3301-5.07c4.22,2.96,9.62,0.17,14.1399,2.07c1.3201,0.46,2.74,1.5,4.2101,0.78
		c2.8199-1.44,5.48,1.05,8.27,1.48c2.5599-2.94,4.7599-6.6,4.71-10.58c-3.52-0.36-7.2001,1.6-10.59-0.14
		c-2.16,1.35-4.67,0.94-6.66-0.45c-3-2.05-6.9-2.92-9.0601-6.01c-2.1,3.64-6.59,7.13-10.9099,5.96c-2.92-3.11-3.49-7.87-6.66-10.96
		c-0.8201,0.2-2.47,0.6-3.3,0.8c0.51,2.54-0.3999,5.32-3.23,5.77c-0.86,1.8-2.15,3.85-4.27,4.2c-2.9199-0.6-5.0499-2.82-7.71-3.96
		c-0.5601-1.4-2.16-3.01-0.75-4.41c2.8199-2.07,6.45-0.41,9.6-0.36c-3.15-3.88-8.5-3.85-12.35-6.63c-2.47-1.31-3.23-4.36-5.71-5.66
		C1354.4301,388.6704,1352.22,389.9204,1349.92,390.9704 M1399.17,397.5004c0.88,1.25,1.7899,2.48,2.76,3.69
		c-0.0701-1.74-0.13-3.48-0.1901-5.21C1400.86,396.4804,1400,396.9904,1399.17,397.5004 M1466.9301,425.6304
		c3.5199,4.67,7.08,9.34,11.23,13.49c1.2-0.94,2.35-1.92,3.49-2.94c-2.99-1.76-6.02-3.43-8.9301-5.29
		c-2.09-1.32-2.9299-3.78-4.49-5.56L1466.9301,425.6304 M1427.8199,430.6004c2.8,6.46,6.15,12.67,8.9601,19.13
		c4.61,4.71,5.11,12.3,10.76,16.1c-0.4501-2.57-0.77-5.21-1.9601-7.55c-1.1799-2.99-4.12-4.61-6.0699-7.02
		c-2.21-2.23-3.42-5.18-4.13-8.18c-0.54-2.59-3.42-3.86-3.95-6.45C1430.78,434.3704,1430.14,431.6904,1427.8199,430.6004
		 M668.59,444.1004c8.24-0.94,16.06-4.63,24.47-4.14c3.17,0.27,6.58-0.18,9.58,1.13c2.53,1.94,4.44,4.64,7.3,6.2
		c1.29-0.85,2.6-1.7,3.92-2.54c-0.75-1.46-1.25-3.24-2.8-4.07c-5.12-3.07-10.87-5.6-16.97-5.23
		C684.87,435.0004,675.9,438.7204,668.59,444.1004 M684.25,444.5204c0.47,0.26,1.41,0.78,1.88,1.04c4.45-1.03,9.46-1.8,12.9-5.04
		C693.92,440.8904,688.73,441.9504,684.25,444.5204 M694.89,446.1504c2.22,0.59,4.55,0.92,6.75,0.01
		C701.13,442.2504,696.76,444.4304,694.89,446.1504 M594.56,696.1703c-0.01,2.59,0.96,5.42-0.19,7.88c-1.97,2.52-5.69,1.01-8.4,1.21
		c0.3101,1.57,1.91,4.21-0.1899,5.19c-3.34,0.5-6.67-0.67-9.95-1.17c-3.59,8.27-6.14,17.25-5.38,26.35
		c0.35,5.81,0.03,12.78,5.03,16.84c6.67,5.66,14.89,9.01,22.62,12.93c-3.93-0.62-7.7599-1.78-11.41-3.33
		c-5.71-2.62-10.17-7.17-14.9-11.17c1.29,7.86,5.03,15.41,11,20.76c-1-0.35-2-0.68-2.99-1.01c0.27,3.61-3.13,0.47-4.76,0.24
		c0.51,2.63,1.59,5.27,3.95,6.78c0.98,1.13,3.49,1.78,2.67,3.66c-2.73,0.56-5.24-0.9-7.7599-1.68c0.75,3.44,3.98,5.26,5.92,7.95
		c-0.92,0.14-2.78,0.43-3.71,0.5699c2.18,5.5,2.53,11.85,1.05,17.61c2.66-2.93,5.33-5.86,8.04-8.75c1.74-0.48,4.27,0,5.14-2
		c4.17-7.29,6.83-15.32,9.89-23.11c1.66-4.8199,3.91-10.1899,8.82-12.48c4.3-0.98,8.15,3.49,12.31,2.71
		c4.29-6.35,1.14-14.38,2.34-21.45c-4.4-0.62-8.75-1.85-12.58-4.12c-5.86-3.35-9.46-9.62-11.26-15.93
		c-0.73-5.87,1.71-11.77,0.62-17.62C599.45,700.1504,597.61,697.1504,594.56,696.1703 M487.25,1127.9304
		c-8.1,10.1801-16.89,19.8-26.65,28.4301c-0.16,1.97-0.37,3.9199-0.59,5.9c4.33-0.14,9.45-1.5901,13.24,1.2
		c1.92,7.1,6.96,12.64,11.87,17.9c13.59,0.4,27.18,0.7799,40.77,1.13c-0.46-5.1901,0.13-10.54-0.91-15.64
		c-8.31-15.8-16.86-31.48-25.21-47.26C495.44,1122.0704,490.25,1123.6904,487.25,1127.9304z"/>
	<path d="M1263.64,322.3804c4.11-2.55,8.21,1.9,12.46,0.96c4.52-0.73,9.0601-1.99,13.54-0.15c0.9399,1.18,1.89,2.35,2.86,3.54
		c-0.87,1.35-1.71,2.7-2.52,4.07c-3.4399,0.77-6.76,1.85-9.9199,3.39c-2.64,0.73-6.1901,2.17-8.38-0.14
		c-1.6901-1.95-4.7101-0.76-6.6001-2.38c-1.2999-1.18-2.34-2.59-3.47-3.9C1261.7,325.7504,1261.23,323.1804,1263.64,322.3804z"/>
	<path d="M1132.11,450.0504c3.1-1.21,6.63-0.98,9.77,0.01c2.8199,1.92,4.96,6.1,2.5699,9.15c-1.5199,0.58-3.1499-0.38-4.6899,0.15
		c-3.1,1.14-5.75-1.5-8.8-1.38c-1.8999-0.24-4.83-0.63-4.87-3.09C1127.48,452.7004,1129.87,451.2804,1132.11,450.0504z"/>
	<path d="M1147.4,453.2304c2.41-2.25,6.4,0.36,6.1699,3.39c0,2.95-4.1499,4.84-6.2699,2.69
		C1145.8,457.7104,1145.64,454.7004,1147.4,453.2304z"/>
	<path d="M1462.6899,541.3704c1.1201-1.77,2.88-3.83,5.2401-3.42c2.63,0.32,3.5499,3.17,4.9399,5.03
		c-0.0599,3.29,0.14,6.6899-1.09,9.81c-1.3101,3.29-1.5901,6.91-3.3401,10.03c-1.6499,2.96-2.33,6.26-2.96,9.55
		c-1.12,2.08-2.5599,4.1-4.46,5.52c-3.13,1.74-7.1901,1.04-9.84-1.25c-0.5701-2.67,0.0299-5.53-1.0801-8.07
		c-0.64-1.61-1.9299-3.57-0.3199-5.06c2.45-2.57,1.73-6.47-0.48-8.92c0.59-2.93,2.2699-5.39,5.1399-6.45
		C1458.29,547.8904,1460.98,544.5304,1462.6899,541.3704z"/>
</g>
</svg>
